<?xml version="1.0" encoding="utf-8"?>
<!-- Generator: Adobe Illustrator 22.1.0, SVG Export Plug-In . SVG Version: 6.00 Build 0)  -->
<svg version="1.1" id="Layer_1" xmlns="http://www.w3.org/2000/svg" xmlns:xlink="http://www.w3.org/1999/xlink" x="0px" y="0px"
	 viewBox="0 0 100 100" style="enable-background:new 0 0 100 100;" xml:space="preserve">
<style type="text/css">
	.st0{fill:none;}
	.st1{fill:#AB0033;}
	.st2{fill:#FED16D;}
</style>
<g>
	<rect class="st0" width="100" height="100"/>
	<path class="st1" d="M11,11v32.5v3.3v16.6c0,7.5,3.8,14.3,10.1,18.3L50,99.9l28.9-18.2c6.3-4,10.1-10.8,10.1-18.3V46.9v-4.8V11H11z
		"/>
	<g>
		<path class="st2" d="M59.8,26.6H44.3h-2.5v1.1c0.3,0.2,0.7,0.4,1.2,0.5c0.5,0.2,0.9,0.3,1.3,0.3v5h7.5v-5h3.8
			c4.9,0,8.8,3.9,8.8,8.8v2.8c0,4.9-3.9,8.8-8.8,8.8h-1.3v2h5.4C66.5,51,72,45.5,72,38.8C72,32.1,66.5,26.6,59.8,26.6z"/>
		<path class="st2" d="M51.9,71.4v-5h-7.5v5c-0.4,0.1-0.8,0.2-1.3,0.3c-0.5,0.1-0.8,0.3-1.2,0.5v1.1h2.5h7.5h2.5v-1.1
			c-0.3-0.2-0.7-0.4-1.2-0.5C52.7,71.6,52.3,71.5,51.9,71.4z"/>
		<path class="st2" d="M56.3,58.3L55,61.8H38V51h6.3v8.3h7.5V40.7h-7.5V49H38V38.2H55l1.4,3.5h1.2c0.2-0.8,0.5-2.5,0.6-3.5v-2h-3.2
			H38h-7.5H28v1.1c0.3,0.2,0.7,0.4,1.2,0.5c0.5,0.2,0.9,0.3,1.3,0.3v23.7c-0.4,0.1-0.8,0.2-1.3,0.3c-0.5,0.1-0.8,0.3-1.2,0.5v1.1
			h2.5H38h16.9h3.2v-2c-0.1-1-0.4-2.6-0.6-3.5H56.3z"/>
	</g>
</g>
</svg>
